# Blender v3.0.1 OBJ File: ''
# www.blender.org
mtllib Marker0.mtl
o Marker0_Cube.001
v 0.005000 -0.000002 -0.250000
v 0.005000 -0.000002 0.250000
v -0.005000 -0.000002 0.250000
v -0.005000 -0.000002 -0.250000
v 0.005000 0.499998 -0.250000
v 0.005000 0.499998 0.250000
v -0.005000 0.499998 0.250000
v -0.005000 0.499998 -0.250000
vt 0.000000 0.000000
vt 0.000000 0.000000
vt 0.000000 0.000000
vt 0.000000 0.000000
vt 0.000000 0.000000
vt 0.000000 0.000000
vt 0.999900 0.994019
vt 0.000100 0.994019
vt 0.000100 0.000100
vt 0.000100 0.994019
vt 0.000100 0.000100
vt 0.999900 0.000100
vt 0.000000 0.000000
vt 0.000000 0.000000
vt 0.999900 0.000100
vt 0.999900 0.994019
vn 0.0000 -1.0000 0.0000
vn 0.0000 1.0000 -0.0000
vn 1.0000 0.0000 0.0000
vn -0.0000 0.0000 1.0000
vn -1.0000 0.0000 -0.0000
vn 0.0000 0.0000 -1.0000
usemtl Marker0Mat
s off
f 1/1/1 2/2/1 3/3/1
f 8/4/2 7/5/2 6/6/2
f 5/7/3 6/8/3 2/9/3
f 6/6/4 7/5/4 3/3/4
f 3/10/5 7/11/5 8/12/5
f 1/1/6 4/13/6 8/4/6
f 4/13/1 1/1/1 3/3/1
f 5/14/2 8/4/2 6/6/2
f 1/15/3 5/7/3 2/9/3
f 2/2/4 6/6/4 3/3/4
f 4/16/5 3/10/5 8/12/5
f 5/14/6 1/1/6 8/4/6
